<?xml version="1.0" encoding="UTF-8" standalone="no"?>
<!-- Created with Inkscape (http://www.inkscape.org/) -->

<svg
   xmlns:dc="http://purl.org/dc/elements/1.1/"
   xmlns:cc="http://creativecommons.org/ns#"
   xmlns:rdf="http://www.w3.org/1999/02/22-rdf-syntax-ns#"
   xmlns:svg="http://www.w3.org/2000/svg"
   xmlns="http://www.w3.org/2000/svg"
   xmlns:sodipodi="http://sodipodi.sourceforge.net/DTD/sodipodi-0.dtd"
   xmlns:inkscape="http://www.inkscape.org/namespaces/inkscape"
   width="250.00002"
   height="250.00002"
   viewBox="0 0 66.145836 66.145839"
   version="1.1"
   id="svg8"
   inkscape:version="0.92.4 (5da689c313, 2019-01-14)"
   sodipodi:docname="cee-logo.svg">
  <defs
     id="defs2" />
  <sodipodi:namedview
     id="base"
     pagecolor="#ffffff"
     bordercolor="#666666"
     borderopacity="1.0"
     inkscape:pageopacity="0.0"
     inkscape:pageshadow="2"
     inkscape:zoom="0.7"
     inkscape:cx="204.88704"
     inkscape:cy="45.749646"
     inkscape:document-units="px"
     inkscape:current-layer="layer1"
     showgrid="false"
     inkscape:pagecheckerboard="true"
     units="px"
     inkscape:showpageshadow="false"
     inkscape:window-width="1920"
     inkscape:window-height="1001"
     inkscape:window-x="-9"
     inkscape:window-y="-9"
     inkscape:window-maximized="1"
     fit-margin-top="0"
     fit-margin-left="0"
     fit-margin-right="0"
     fit-margin-bottom="0" />
  <metadata
     id="metadata5">
    <rdf:RDF>
      <cc:Work
         rdf:about="">
        <dc:format>image/svg+xml</dc:format>
        <dc:type
           rdf:resource="http://purl.org/dc/dcmitype/StillImage" />
        <dc:title></dc:title>
      </cc:Work>
    </rdf:RDF>
  </metadata>
  <g
     inkscape:label="Calque 1"
     inkscape:groupmode="layer"
     id="layer1"
     transform="translate(9.8273773,-242.76041)">
    <rect
       style="opacity:1;fill:none;fill-opacity:1;stroke:none;stroke-width:5.29166651;stroke-miterlimit:8;stroke-dasharray:none;stroke-dashoffset:0;stroke-opacity:1"
       id="rect1421"
       width="66.145836"
       height="66.145836"
       x="-9.8273773"
       y="242.76041" />
    <g
       id="g1419"
       transform="translate(-230.00112,80.429127)">
      <path
         id="path1225"
         d="m 257.09745,222.71551 c -0.0194,-0.019 -0.41628,-0.0797 -0.88195,-0.13499 -0.46566,-0.0553 -1.18956,-0.17753 -1.60866,-0.2717 -2.04302,-0.45905 -1.78729,-0.44027 -6.05367,-0.44438 -3.71402,-0.004 -4.05729,-0.0161 -4.48733,-0.16359 -1.12391,-0.3855 -1.81256,-0.83981 -2.99781,-1.97766 -0.44868,-0.43074 -0.85158,-0.78317 -0.89532,-0.78317 -0.0437,0 -0.29709,-0.29416 -0.56297,-0.65369 -0.50336,-0.68064 -2.50241,-2.73393 -3.1639,-3.24975 -0.20955,-0.16341 -0.57408,-0.41415 -0.81005,-0.5572 -0.36927,-0.22387 -1.64544,-1.10865 -3.4435,-2.38741 -0.26724,-0.19006 -0.65817,-0.58437 -0.86873,-0.87625 -0.21056,-0.29188 -0.49803,-0.67255 -0.63882,-0.84593 -0.74802,-0.92113 -1.04596,-2.00362 -1.47454,-5.35743 -0.44339,-3.46966 -0.49596,-3.71008 -1.20276,-5.50035 -0.77074,-1.9522 -1.03136,-2.74383 -1.25505,-3.81203 -0.50221,-2.3983 -0.13316,-4.36368 1.26412,-6.73195 1.18446,-2.00758 1.79377,-3.39634 2.24737,-5.12234 0.0979,-0.37253 0.28549,-1.03928 0.41686,-1.48166 0.13137,-0.44239 0.29723,-1.05199 0.36856,-1.35467 0.26681,-1.13205 0.74526,-2.31368 1.22884,-3.03487 0.854,-1.27361 1.8378,-2.07349 3.61736,-2.94108 3.22186,-1.57076 4.64853,-2.42959 5.67267,-3.41487 0.37253,-0.35839 0.92498,-0.83706 1.22767,-1.06371 0.30268,-0.22664 0.79798,-0.61093 1.10066,-0.85397 0.96757,-0.77692 1.92009,-1.24544 3.07442,-1.51221 0.67537,-0.15608 2.11716,-0.17533 2.92715,-0.0391 0.98134,0.16508 2.23101,0.40925 2.9731,0.58091 1.27075,0.29396 2.70229,0.36984 4.76398,0.25252 2.23931,-0.12743 3.8775,-0.0722 4.59687,0.15506 0.69444,0.21935 1.8072,0.80798 2.3926,1.26564 0.26448,0.20678 0.69652,0.4857 0.96007,0.61983 0.26355,0.13414 0.5661,0.36889 0.67232,0.52169 0.66844,0.96147 3.27836,3.71299 3.84382,4.05236 0.77016,0.46222 0.99637,0.62448 1.38911,0.9964 0.21389,0.20255 0.57939,0.465 0.81223,0.58321 0.63359,0.32168 2.05567,1.35384 2.22352,1.61385 0.0809,0.12536 0.38279,0.44921 0.6708,0.71967 0.62512,0.58703 1.31853,1.84588 1.51466,2.7498 0.27552,1.26979 0.37304,1.88935 0.45998,2.92256 0.0502,0.59586 0.12673,1.17688 0.17018,1.29117 0.0435,0.11428 0.0628,0.20779 0.0431,0.20779 -0.0197,0 0.0193,0.13212 0.0868,0.29361 0.0675,0.16149 0.12267,0.46481 0.12267,0.67405 0,0.70607 0.59887,2.75852 1.78045,6.102 0.46439,1.31408 0.51282,1.56546 0.56276,2.921 0.0555,1.50562 0.009,1.7648 -0.61508,3.42646 -0.43294,1.15289 -1.08228,2.42522 -1.77299,3.47404 -0.25822,0.3921 -0.56138,0.91442 -0.67369,1.1607 -0.24077,0.528 -0.88578,2.73253 -1.13428,3.8768 -0.19554,0.90044 -0.25678,1.11054 -0.5182,1.778 -0.10031,0.25612 -0.22178,0.59902 -0.26993,0.762 -0.18273,0.6186 -0.91637,1.91909 -1.44273,2.55747 -0.6148,0.74564 -1.76205,1.46617 -4.32206,2.71448 -1.96242,0.95692 -2.85134,1.4844 -3.44758,2.04578 -0.20955,0.1973 -0.54046,0.47205 -0.73536,0.61054 -0.19489,0.1385 -0.59729,0.47822 -0.89421,0.75494 -0.49714,0.46331 -0.82266,0.73188 -2.05924,1.69893 -0.91322,0.71418 -2.60824,1.21719 -4.1016,1.21719 -0.44955,0 -0.83324,-0.0155 -0.85264,-0.0345 z"
         style="fill:#92bb3b;fill-opacity:1;stroke-width:1"
         inkscape:connector-curvature="0" />
      <path
         id="path1223"
         d="m 255.92943,218.72322 c 1.31005,-0.14219 1.75249,-0.23701 2.97162,-0.63687 0.43218,-0.14174 1.07154,-0.317 1.42079,-0.38946 0.64636,-0.13409 1.0321,-0.26715 1.86266,-0.64252 0.25612,-0.11575 0.64282,-0.28745 0.85934,-0.38155 0.21652,-0.0941 0.71182,-0.37777 1.10067,-0.63037 0.38885,-0.2526 0.84991,-0.54092 1.0246,-0.64072 0.86679,-0.49521 2.63487,-1.9414 3.66172,-2.99509 1.51536,-1.55497 2.35153,-2.62501 3.13171,-4.00762 0.13138,-0.23283 0.4182,-0.70908 0.63737,-1.05833 0.33771,-0.53813 0.61309,-1.12986 1.39881,-3.00566 0.19377,-0.46262 0.80857,-2.44 1.06613,-3.429 0.13946,-0.53552 0.32717,-1.52612 0.41713,-2.20134 0.30463,-2.28638 0.16913,-6.39364 -0.26464,-8.02216 -0.0899,-0.33761 -0.24205,-0.90911 -0.33806,-1.27 -0.48711,-1.83113 -1.3674,-4.1967 -1.97704,-5.31284 -0.24069,-0.44066 -1.44254,-2.32359 -2.01627,-3.15888 -0.27911,-0.40636 -1.20381,-1.50824 -1.71877,-2.04812 -0.24429,-0.25611 -0.56948,-0.61166 -0.72263,-0.7901 -0.15315,-0.17844 -0.49085,-0.47023 -0.75043,-0.64842 -0.25958,-0.1782 -0.68152,-0.54051 -0.93764,-0.80514 -0.49719,-0.51373 -1.11467,-0.96823 -1.85326,-1.36412 -0.48801,-0.26157 -0.48097,-0.2573 -1.21184,-0.73401 -0.26552,-0.17318 -0.50243,-0.31487 -0.52647,-0.31487 -0.024,0 -0.3402,-0.14471 -0.70257,-0.32157 -0.65272,-0.31857 -1.64779,-0.73764 -2.05586,-0.86582 -1.1045,-0.34694 -2.41808,-0.69501 -2.87294,-0.76128 -0.30583,-0.0446 -0.78466,-0.12051 -1.06406,-0.16878 -2.0402,-0.35252 -3.49869,-0.41255 -5.16466,-0.21258 -2.79371,0.33534 -4.90665,0.86693 -7.06967,1.77867 -0.68214,0.28753 -2.41812,1.30038 -3.06517,1.78836 -0.26555,0.20028 -0.63405,0.44129 -0.81889,0.53558 -0.18483,0.0943 -0.57653,0.39126 -0.87044,0.65993 -0.29391,0.26867 -0.63026,0.57592 -0.74744,0.68278 -0.11718,0.10687 -0.36546,0.31395 -0.55173,0.46019 -0.18626,0.14624 -0.58631,0.54513 -0.889,0.88643 -0.30268,0.34129 -0.64558,0.72479 -0.762,0.85222 -0.11641,0.12743 -0.36406,0.42215 -0.55033,0.65494 -0.18627,0.23279 -0.36125,0.44231 -0.38884,0.46559 -0.0797,0.0673 -0.61494,0.85643 -0.83261,1.22767 -0.10921,0.18627 -0.27664,0.47202 -0.37207,0.635 -0.63894,1.09127 -1.63845,3.00958 -1.80868,3.47133 -0.68432,1.85616 -1.18059,3.68504 -1.45889,5.37634 -0.25474,1.54804 -0.28794,2.01065 -0.28568,3.98062 0.003,2.24024 0.0623,2.83752 0.49975,4.99404 0.29228,1.44098 0.32419,1.56343 0.79439,3.048 0.29926,0.94485 1.53216,3.52538 2.20755,4.62052 0.24201,0.39241 0.51413,0.84683 0.60472,1.00981 0.0906,0.16299 0.20948,0.33444 0.2642,0.381 0.0547,0.0466 0.26825,0.29422 0.4745,0.55034 0.20624,0.25611 0.41768,0.50376 0.46985,0.55033 0.0522,0.0466 0.22448,0.27517 0.38291,0.508 0.65417,0.96141 2.81951,2.87379 4.69823,4.14936 1.74655,1.18583 3.98746,2.25719 5.75734,2.75252 0.1397,0.0391 0.73025,0.20818 1.31233,0.37573 0.58208,0.16756 1.43933,0.35685 1.905,0.42064 1.19259,0.1634 4.22543,0.16407 5.72526,0.001 z"
         style="fill:#ffffff;fill-opacity:1;stroke-width:1"
         inkscape:connector-curvature="0" />
      <g
         style="fill:#35a8cc;fill-opacity:1"
         id="g1230">
        <path
           style="fill:#35a8cc;fill-opacity:1;stroke-width:1"
           d="m 240.54561,207.64567 c -0.76242,-0.15057 -1.3678,-0.48612 -1.95713,-1.08479 -0.60863,-0.61828 -1.07089,-1.34862 -1.24233,-1.96283 -0.21031,-0.75347 -0.45638,-2.51225 -0.72978,-5.21616 -0.0494,-0.48895 -0.12571,-1.1557 -0.1695,-1.48167 -0.0438,-0.32597 -0.12045,-0.97367 -0.17039,-1.43933 -0.0499,-0.46567 -0.126,-1.13242 -0.16903,-1.48167 -0.043,-0.34925 -0.12022,-1.016 -0.17152,-1.48167 -0.0513,-0.46566 -0.12901,-1.10161 -0.17268,-1.41322 -0.0437,-0.3116 -0.0794,-1.00496 -0.0794,-1.54079 0,-1.20864 0.22649,-2.01474 0.81284,-2.89298 0.7576,-1.13473 1.83429,-1.80368 3.29366,-2.04636 0.70912,-0.11791 0.933,-0.12216 1.59759,-0.0303 1.6928,0.23393 2.86874,1.1447 3.64168,2.82053 0.44348,0.96151 0.46034,1.01759 0.60724,2.01925 0.11957,0.81536 0.12212,0.96139 0.0186,1.06491 -0.10741,0.10742 -0.43856,0.16717 -2.45796,0.44352 -0.68698,0.094 -0.78652,0.006 -0.85035,-0.75579 -0.0654,-0.77989 -0.26572,-1.31416 -0.64443,-1.71855 -0.43515,-0.46467 -0.71657,-0.59 -1.22788,-0.54684 -0.59613,0.0503 -1.07627,0.37043 -1.33068,0.88715 -0.24147,0.49043 -0.25061,1.22146 -0.0369,2.9475 0.075,0.60537 0.17534,1.44357 0.22306,1.86267 0.0477,0.4191 0.12233,1.04775 0.1658,1.397 0.0435,0.34925 0.11976,0.99695 0.16953,1.43933 0.0498,0.44239 0.12423,1.09009 0.16549,1.43934 0.0413,0.34925 0.11816,1.0922 0.17089,1.651 0.2595,2.74999 0.65437,3.7292 1.57335,3.9016 0.70977,0.13316 1.56538,-0.23679 1.89778,-0.82055 0.1994,-0.35018 0.21064,-0.43622 0.19398,-1.48472 l -0.0177,-1.11301 0.22936,-0.0881 c 0.41029,-0.15765 2.61455,-0.37371 2.80001,-0.27445 0.21169,0.11329 0.3001,0.9368 0.24765,2.30696 -0.0287,0.75013 -0.0838,1.08946 -0.25311,1.55826 -0.57751,1.59934 -1.77023,2.7116 -3.34547,3.11979 -0.60812,0.15758 -2.02181,0.16521 -2.78229,0.015 z"
           id="path1165"
           inkscape:connector-curvature="0" />
        <path
           style="fill:#35a8cc;fill-opacity:1;stroke-width:1"
           d="m 249.44661,206.48378 c -0.0528,-0.22805 -0.43647,-3.38311 -0.51356,-4.22323 -0.0675,-0.73574 -0.10821,-1.10008 -0.21277,-1.905 -0.11955,-0.92034 -0.31325,-2.53839 -0.42064,-3.51366 -0.18133,-1.64685 -0.49385,-4.07742 -0.5933,-4.61434 -0.0431,-0.23283 -0.11726,-0.78528 -0.16476,-1.22766 -0.0804,-0.74892 -0.18231,-1.63031 -0.29369,-2.54 -0.15455,-1.26236 -0.32949,-2.96175 -0.32983,-3.20405 -5.1e-4,-0.35424 0.0768,-0.40088 0.77492,-0.46768 0.31012,-0.0297 0.65911,-0.0707 0.77552,-0.091 0.11642,-0.0204 0.72602,-0.0977 1.35467,-0.17178 1.16076,-0.1368 1.42302,-0.16575 2.32833,-0.25698 0.2794,-0.0281 1.18574,-0.16394 2.0141,-0.30173 1.0787,-0.17945 1.55105,-0.22648 1.66453,-0.16575 0.1695,0.0907 0.20767,0.25608 0.34259,1.48401 0.12816,1.16641 0.11315,1.5468 -0.0631,1.5978 -0.18055,0.0523 -1.1656,0.19266 -2.13783,0.30471 -2.0651,0.23801 -3.42914,0.43442 -3.49848,0.50376 -0.0472,0.0471 -0.0417,0.2385 0.0139,0.48671 0.10785,0.4818 0.22831,1.35122 0.34995,2.52568 0.17113,1.65229 0.26931,2.45857 0.32992,2.70934 0.0728,0.30137 0.12186,0.30485 1.45008,0.103 0.48895,-0.0743 1.47074,-0.20201 2.18176,-0.28377 1.14644,-0.13184 1.30707,-0.13436 1.41917,-0.0223 0.0864,0.0864 0.17153,0.54515 0.26886,1.44855 0.15925,1.478 0.13561,1.58717 -0.34532,1.59526 -0.14564,0.002 -0.55055,0.0585 -0.8998,0.12449 -0.614,0.11605 -1.91162,0.30337 -3.048,0.43999 l -0.55034,0.0662 0.007,0.63495 c 0.004,0.34923 0.0711,1.13026 0.14903,1.73563 0.0779,0.60536 0.20332,1.65311 0.27872,2.32833 0.0754,0.67522 0.16435,1.25795 0.19767,1.29495 0.066,0.0733 3.72234,-0.34086 4.76886,-0.54022 0.57819,-0.11013 0.9546,-0.0959 1.06773,0.0404 0.0538,0.0648 0.13418,0.43628 0.17865,0.8255 0.0445,0.38921 0.11842,1.00235 0.16433,1.36252 0.0856,0.67179 0.045,0.93648 -0.15012,0.97672 -0.126,0.026 -1.58927,0.21108 -2.85225,0.36077 -0.46567,0.0552 -1.39912,0.19405 -2.07434,0.30857 -1.13886,0.19316 -1.87664,0.28659 -3.31877,0.4203 -0.54704,0.0507 -0.56877,0.0454 -0.61379,-0.14899 z"
           id="path1159"
           inkscape:connector-curvature="0" />
        <path
           style="fill:#35a8cc;fill-opacity:1;stroke-width:1"
           d="m 261.14739,205.15647 c -0.19071,-0.0382 -0.18282,0.006 -0.48931,-2.72658 -0.23948,-2.135 -0.38436,-3.24944 -0.5999,-4.61434 -0.0441,-0.2794 -0.11449,-0.83185 -0.15637,-1.22766 -0.0784,-0.74051 -0.19068,-1.70386 -0.34549,-2.96334 -0.0487,-0.39581 -0.12364,-1.04351 -0.16665,-1.43933 -0.15911,-1.4644 -0.25197,-2.26077 -0.3406,-2.921 -0.05,-0.37253 -0.1267,-1.03928 -0.17041,-1.48167 -0.0437,-0.44238 -0.13782,-1.26153 -0.20912,-1.82033 -0.0713,-0.5588 -0.13827,-1.33848 -0.14884,-1.73262 -0.0185,-0.68955 -0.0112,-0.72043 0.19247,-0.81757 0.11642,-0.0555 0.85937,-0.18133 1.651,-0.27956 0.79163,-0.0982 2.02988,-0.25561 2.75167,-0.34974 3.50476,-0.45704 4.1718,-0.51849 4.28471,-0.39472 0.13146,0.1441 0.49171,2.85332 0.39259,2.95243 -0.0763,0.0763 -0.38604,0.12863 -1.88331,0.31836 -0.39581,0.0502 -1.31121,0.16752 -2.03421,0.26081 -0.723,0.0933 -1.43738,0.16961 -1.5875,0.16961 -0.34075,0 -0.34012,-0.067 -0.0242,2.58233 0.05,0.4191 0.13209,1.143 0.18246,1.60867 0.0504,0.46567 0.11683,1.07527 0.14767,1.35467 l 0.0561,0.508 0.71967,-0.0199 c 0.39581,-0.0109 0.94826,-0.0567 1.22766,-0.10175 1.17697,-0.18974 1.90195,-0.27169 2.53232,-0.28625 l 0.66965,-0.0155 0.0711,0.254 c 0.0391,0.1397 0.1356,0.77871 0.21447,1.42003 0.12488,1.01548 0.12763,1.18131 0.0213,1.28446 -0.12385,0.12012 -1.21673,0.28696 -3.38179,0.51628 -0.62865,0.0666 -1.22746,0.14479 -1.33069,0.17379 -0.18831,0.0529 -0.32821,0.308 -0.2438,0.44457 0.0248,0.0401 0.0825,0.45005 0.12829,0.91092 0.0825,0.83055 0.25959,2.41789 0.43362,3.88595 0.0497,0.4191 0.12165,0.79346 0.15993,0.83191 0.0686,0.0689 0.45925,0.0222 3.39265,-0.40508 2.19123,-0.31919 2.14766,-0.31549 2.30955,-0.19629 0.14763,0.1087 0.22536,0.6319 0.36999,2.49061 0.0643,0.82598 0.0619,0.82829 -0.94387,0.9146 -0.37254,0.032 -1.06554,0.11405 -1.54001,0.18239 -0.79975,0.11521 -1.83193,0.24449 -4.64066,0.58121 -1.51637,0.18178 -1.50586,0.18086 -1.67211,0.14757 z"
           id="path1153"
           inkscape:connector-curvature="0" />
      </g>
      <g
         style="fill:#cde9f2;fill-opacity:1"
         id="g1321">
        <path
           style="fill:#cde9f2;fill-opacity:1;stroke-width:1"
           d="m 252.33396,217.76919 c -0.0771,-0.0852 -0.14012,-0.29255 -0.14012,-0.46086 0,-0.34724 0.23139,-0.56964 0.59266,-0.56964 0.37136,0 0.59267,0.22131 0.59267,0.59267 0,0.24406 -0.0486,0.36311 -0.18817,0.46086 -0.25495,0.17857 -0.68506,0.16701 -0.85704,-0.023 z"
           id="path1221"
           inkscape:connector-curvature="0" />
        <path
           style="fill:#cde9f2;fill-opacity:1;stroke-width:1"
           d="m 250.96311,217.72059 c -0.18874,-0.13801 -0.22755,-0.74282 -0.0585,-0.91186 0.15019,-0.15018 0.67525,-0.12766 0.8389,0.036 0.0769,0.0769 0.1399,0.26195 0.1399,0.41112 0,0.47178 -0.53865,0.74379 -0.92028,0.46474 z"
           id="path1219"
           inkscape:connector-curvature="0" />
        <path
           style="fill:#cde9f2;fill-opacity:1;stroke-width:1"
           d="m 253.85161,217.67749 c -0.20108,-0.22219 -0.14035,-0.58939 0.13082,-0.79092 0.18971,-0.14098 0.25171,-0.14965 0.42333,-0.0592 0.25819,0.13608 0.32518,0.24104 0.32678,0.512 0.003,0.44424 -0.58186,0.66858 -0.88093,0.33811 z"
           id="path1217"
           inkscape:connector-curvature="0" />
        <path
           style="fill:#cde9f2;fill-opacity:1;stroke-width:1"
           d="m 249.7385,217.68779 c -0.68456,-0.21199 -0.65704,-1.20311 0.0334,-1.20311 0.34181,0 0.53862,0.13658 0.60009,0.41645 0.0995,0.45291 -0.26194,0.90172 -0.63349,0.78666 z"
           id="path1215"
           inkscape:connector-curvature="0" />
        <path
           style="fill:#cde9f2;fill-opacity:1;stroke-width:1"
           d="m 255.41117,217.58535 c -0.0931,-0.0931 -0.16933,-0.26459 -0.16933,-0.381 0,-0.24687 0.27119,-0.55034 0.49181,-0.55034 0.30113,0 0.478,0.21784 0.478,0.58872 0,0.21761 -0.0476,0.38125 -0.12507,0.43027 -0.20573,0.13009 -0.49524,0.0925 -0.67541,-0.0876 z"
           id="path1213"
           inkscape:connector-curvature="0" />
        <path
           style="fill:#cde9f2;fill-opacity:1;stroke-width:1"
           d="m 256.81297,217.31251 c -0.18578,-0.26524 -0.16385,-0.5142 0.0642,-0.7284 0.24283,-0.22813 0.31653,-0.2292 0.59695,-0.009 0.26809,0.21088 0.29005,0.51957 0.0538,0.75586 -0.22468,0.22468 -0.55032,0.21609 -0.71487,-0.0188 z"
           id="path1211"
           inkscape:connector-curvature="0" />
        <path
           style="fill:#cde9f2;fill-opacity:1;stroke-width:1"
           d="m 248.06868,217.14085 c -0.29274,-0.37833 -0.0978,-0.90507 0.33632,-0.90887 0.21088,-0.002 0.48684,0.30192 0.48684,0.53591 0,0.379 -0.60603,0.65358 -0.82316,0.37296 z"
           id="path1209"
           inkscape:connector-curvature="0" />
        <path
           style="fill:#cde9f2;fill-opacity:1;stroke-width:1"
           d="m 258.26062,217.09185 c -0.0771,-0.0852 -0.14012,-0.29132 -0.14012,-0.45814 0,-0.388 0.42067,-0.79439 0.67913,-0.65607 0.41739,0.22338 0.55006,0.80185 0.25221,1.09971 -0.21156,0.21155 -0.60634,0.21879 -0.79122,0.0145 z"
           id="path1207"
           inkscape:connector-curvature="0" />
        <path
           style="fill:#cde9f2;fill-opacity:1;stroke-width:1"
           d="m 246.52583,216.68304 c -0.18545,-0.23575 -0.17404,-0.41707 0.0484,-0.76986 0.25973,-0.41185 0.87823,-0.10805 0.87823,0.43138 0,0.54885 -0.5913,0.76484 -0.92667,0.33848 z"
           id="path1205"
           inkscape:connector-curvature="0" />
        <path
           style="fill:#cde9f2;fill-opacity:1;stroke-width:1"
           d="m 259.74849,216.71914 c -0.22864,-0.11019 -0.31205,-0.38255 -0.238,-0.77722 0.0579,-0.30841 0.17432,-0.38862 0.56427,-0.38862 0.33829,0 0.58574,0.26826 0.58574,0.635 0,0.51981 -0.42346,0.76629 -0.91201,0.53084 z"
           id="path1203"
           inkscape:connector-curvature="0" />
        <path
           style="fill:#cde9f2;fill-opacity:1;stroke-width:1"
           d="m 245.08665,216.17519 c -0.21433,-0.27248 -0.17891,-0.58244 0.0928,-0.81239 0.51316,-0.43422 1.1974,0.14114 0.90261,0.75898 -0.0923,0.19342 -0.17542,0.24045 -0.46212,0.26142 -0.29673,0.0217 -0.37739,-0.01 -0.53333,-0.20801 z"
           id="path1201"
           inkscape:connector-curvature="0" />
        <path
           style="fill:#cde9f2;fill-opacity:1;stroke-width:1"
           d="m 261.18734,216.09879 c -0.13726,-0.0961 -0.18782,-0.21641 -0.18688,-0.4445 0.002,-0.38959 0.0676,-0.49593 0.35205,-0.56732 0.2856,-0.0717 0.57855,0.19744 0.5767,0.52979 -0.002,0.28019 -0.0663,0.3879 -0.31064,0.51649 -0.23004,0.12108 -0.20647,0.12297 -0.43123,-0.0345 z"
           id="path1199"
           inkscape:connector-curvature="0" />
        <path
           style="fill:#cde9f2;fill-opacity:1;stroke-width:1"
           d="m 243.87092,215.57177 c -0.3717,-0.41072 0.0159,-1.09718 0.49596,-0.87844 0.1152,0.0525 0.25361,0.19235 0.30757,0.31079 0.20493,0.44978 -0.47531,0.93032 -0.80353,0.56765 z"
           id="path1197"
           inkscape:connector-curvature="0" />
        <path
           style="fill:#cde9f2;fill-opacity:1;stroke-width:1"
           d="m 262.41349,215.44742 c -0.0781,-0.0582 -0.16586,-0.22713 -0.19498,-0.37538 -0.0428,-0.21801 -0.0114,-0.3111 0.16435,-0.48684 0.33509,-0.33508 0.73638,-0.28134 0.94749,0.12689 0.28376,0.54873 -0.41508,1.10921 -0.91686,0.73533 z"
           id="path1195"
           inkscape:connector-curvature="0" />
        <path
           style="fill:#cde9f2;fill-opacity:1;stroke-width:1"
           d="m 242.71117,215.06901 c -0.46178,-0.16671 -0.57924,-0.7355 -0.2116,-1.02468 0.17077,-0.13432 0.27144,-0.15308 0.52038,-0.0969 0.34877,0.0787 0.45005,0.19452 0.45192,0.51698 0.002,0.38622 -0.42501,0.72582 -0.7607,0.60463 z"
           id="path1193"
           inkscape:connector-curvature="0" />
        <path
           style="fill:#cde9f2;fill-opacity:1;stroke-width:1"
           d="m 263.71148,214.54282 c -0.19356,-0.36168 0.0141,-0.76756 0.39273,-0.76756 0.39473,0 0.62109,0.66499 0.28719,0.84369 -0.2619,0.14016 -0.58343,0.10417 -0.67992,-0.0761 z"
           id="path1191"
           inkscape:connector-curvature="0" />
        <path
           style="fill:#cde9f2;fill-opacity:1;stroke-width:1"
           d="m 241.1393,213.99037 c -0.27246,-0.41584 0.0517,-0.97711 0.56434,-0.97711 0.26804,0 0.39518,0.13445 0.46708,0.49391 0.0829,0.41445 -0.14152,0.69142 -0.56022,0.69142 -0.26217,0 -0.36434,-0.0452 -0.4712,-0.20822 z"
           id="path1189"
           inkscape:connector-curvature="0" />
        <path
           style="fill:#cde9f2;fill-opacity:1;stroke-width:1"
           d="m 265.08987,213.94317 c -0.21279,-0.0848 -0.36537,-0.33104 -0.36537,-0.58957 0,-0.24362 0.36883,-0.59438 0.62501,-0.59438 0.24658,0 0.56032,0.35669 0.56032,0.63704 0,0.39185 -0.45225,0.6935 -0.81996,0.54691 z"
           id="path1187"
           inkscape:connector-curvature="0" />
        <path
           style="fill:#cde9f2;fill-opacity:1;stroke-width:1"
           d="m 240.04032,213.0594 c -0.1143,-0.1143 -0.20782,-0.2667 -0.20782,-0.33867 0,-0.21107 0.319,-0.46951 0.57955,-0.46951 0.47888,0 0.71188,0.61878 0.33295,0.8842 -0.26519,0.18574 -0.46441,0.16425 -0.70468,-0.076 z"
           id="path1185"
           inkscape:connector-curvature="0" />
        <path
           style="fill:#cde9f2;fill-opacity:1;stroke-width:1"
           d="m 266.08531,212.70547 c -0.0965,-0.1227 -0.17548,-0.25778 -0.17548,-0.30018 0,-0.13732 0.41114,-0.49274 0.56998,-0.49274 0.26924,0 0.53069,0.24618 0.53069,0.49968 0,0.50337 -0.60825,0.69615 -0.92519,0.29324 z"
           id="path1183"
           inkscape:connector-curvature="0" />
        <path
           style="fill:#cde9f2;fill-opacity:1;stroke-width:1"
           d="m 238.90117,212.16655 c -0.0931,-0.0931 -0.16933,-0.26458 -0.16933,-0.381 0,-0.24562 0.27084,-0.55033 0.48916,-0.55033 0.29084,0 0.52684,0.24651 0.52684,0.55033 0,0.48648 -0.51117,0.7165 -0.84667,0.381 z"
           id="path1181"
           inkscape:connector-curvature="0" />
        <path
           style="fill:#cde9f2;fill-opacity:1;stroke-width:1"
           d="m 267.23949,211.89138 c -0.23927,-0.17828 -0.26802,-0.5837 -0.0601,-0.848 0.49007,-0.62302 1.34132,0.11371 0.88467,0.76567 -0.14948,0.21342 -0.58962,0.25737 -0.82454,0.0823 z"
           id="path1179"
           inkscape:connector-curvature="0" />
        <path
           style="fill:#cde9f2;fill-opacity:1;stroke-width:1"
           d="m 237.85425,211.14441 c -0.44129,-0.34712 -0.21687,-1.00986 0.34196,-1.00986 0.53028,0 0.739,0.67441 0.31254,1.00986 -0.1227,0.0965 -0.26996,0.17547 -0.32725,0.17547 -0.0573,0 -0.20455,-0.079 -0.32725,-0.17547 z"
           id="path1177"
           inkscape:connector-curvature="0" />
        <path
           style="fill:#cde9f2;fill-opacity:1;stroke-width:1"
           d="m 268.24297,210.62371 c -0.0725,-0.10349 -0.1318,-0.25762 -0.1318,-0.34251 0,-0.19006 0.36682,-0.56998 0.55033,-0.56998 0.20387,0 0.55033,0.38908 0.55033,0.61803 0,0.45436 -0.70647,0.66908 -0.96886,0.29446 z"
           id="path1175"
           inkscape:connector-curvature="0" />
        <path
           style="fill:#cde9f2;fill-opacity:1;stroke-width:1"
           d="m 236.79926,209.93859 c -0.10125,-0.10777 -0.18409,-0.28095 -0.18409,-0.38484 0,-0.21797 0.3519,-0.60453 0.55033,-0.60453 0.20896,0 0.55034,0.3915 0.55034,0.63115 0,0.26926 -0.27536,0.55418 -0.53558,0.55418 -0.1083,0 -0.27975,-0.0882 -0.381,-0.19596 z"
           id="path1173"
           inkscape:connector-curvature="0" />
        <path
           style="fill:#cde9f2;fill-opacity:1;stroke-width:1"
           d="m 269.2965,209.54188 c -0.31877,-0.31877 -0.13944,-0.84666 0.28762,-0.84666 0.20055,0 0.55905,0.31815 0.55905,0.49614 0,0.14827 -0.39062,0.51986 -0.54649,0.51986 -0.072,0 -0.20705,-0.0762 -0.30018,-0.16934 z"
           id="path1171"
           inkscape:connector-curvature="0" />
        <path
           style="fill:#cde9f2;fill-opacity:1;stroke-width:1"
           d="m 235.96635,208.82419 c -0.24629,-0.1725 -0.3127,-0.50234 -0.16044,-0.79678 0.30832,-0.59622 0.97859,-0.37493 0.97859,0.32309 0,0.53746 -0.39807,0.76793 -0.81815,0.47369 z"
           id="path1169"
           inkscape:connector-curvature="0" />
        <path
           style="fill:#cde9f2;fill-opacity:1;stroke-width:1"
           d="m 270.10867,208.18108 c -0.24717,-0.29374 -0.20463,-0.48142 0.16386,-0.72286 0.44299,-0.29026 0.90333,0.11271 0.70991,0.62144 -0.16894,0.44435 -0.54818,0.48837 -0.87377,0.10142 z"
           id="path1167"
           inkscape:connector-curvature="0" />
        <path
           style="fill:#cde9f2;fill-opacity:1;stroke-width:1"
           d="m 235.17584,207.48436 c -0.17184,-0.0864 -0.21167,-0.16912 -0.21167,-0.4394 0,-0.27516 0.0404,-0.35551 0.23283,-0.46316 0.20919,-0.11702 0.25648,-0.11708 0.46567,-5.9e-4 0.17485,0.0974 0.23917,0.2046 0.25828,0.43058 0.037,0.4374 -0.33988,0.67642 -0.74511,0.47257 z"
           id="path1163"
           inkscape:connector-curvature="0" />
        <path
           style="fill:#cde9f2;fill-opacity:1;stroke-width:1"
           d="m 270.91604,207.05732 c -0.19644,-0.2367 -0.20132,-0.59842 -0.0113,-0.83994 0.21782,-0.27692 0.4087,-0.29201 0.70872,-0.056 0.27043,0.21273 0.30516,0.65533 0.0683,0.86974 -0.18658,0.16885 -0.63453,0.18419 -0.76563,0.0262 z"
           id="path1161"
           inkscape:connector-curvature="0" />
        <path
           style="fill:#cde9f2;fill-opacity:1;stroke-width:1"
           d="m 234.3624,206.11147 c -0.28244,-0.28244 -0.25127,-0.67617 0.0726,-0.91691 l 0.23284,-0.17307 0.23283,0.17307 c 0.32387,0.24074 0.35505,0.63447 0.0726,0.91691 -0.1172,0.1172 -0.25464,0.21308 -0.30544,0.21308 -0.0508,0 -0.18825,-0.0959 -0.30544,-0.21308 z"
           id="path1157"
           inkscape:connector-curvature="0" />
        <path
           style="fill:#cde9f2;fill-opacity:1;stroke-width:1"
           d="m 271.63796,205.57705 c -0.17699,-0.19557 -0.18048,-0.55471 -0.007,-0.72812 0.31054,-0.31054 0.88295,-0.0579 0.88295,0.38967 0,0.4336 -0.58514,0.65971 -0.87588,0.33845 z"
           id="path1155"
           inkscape:connector-curvature="0" />
        <path
           style="fill:#cde9f2;fill-opacity:1;stroke-width:1"
           d="m 233.83928,204.77365 c -0.35787,-0.15969 -0.34917,-0.7189 0.0137,-0.88426 0.2784,-0.12684 0.59525,0.043 0.62953,0.33744 0.0528,0.45391 -0.25846,0.71853 -0.64328,0.54682 z"
           id="path1151"
           inkscape:connector-curvature="0" />
        <path
           style="fill:#cde9f2;fill-opacity:1;stroke-width:1"
           d="m 272.27867,204.33008 c -0.14582,-0.10213 -0.18817,-0.21538 -0.18817,-0.50319 0,-0.28782 0.0423,-0.40107 0.18817,-0.5032 0.42668,-0.29886 0.9125,-0.031 0.9125,0.5032 0,0.53415 -0.48582,0.80205 -0.9125,0.50319 z"
           id="path1149"
           inkscape:connector-curvature="0" />
        <path
           style="fill:#cde9f2;fill-opacity:1;stroke-width:1"
           d="m 233.11463,203.20639 c -0.20238,-0.22362 -0.17229,-0.54744 0.0722,-0.77712 0.20674,-0.19422 0.22009,-0.19576 0.508,-0.0585 0.26467,0.12621 0.29568,0.17635 0.29568,0.47806 0,0.24659 -0.0439,0.36058 -0.16376,0.4247 -0.24993,0.13376 -0.55643,0.10484 -0.71211,-0.0672 z"
           id="path1147"
           inkscape:connector-curvature="0" />
        <path
           style="fill:#cde9f2;fill-opacity:1;stroke-width:1"
           d="m 273.02183,202.87334 c -0.52907,-0.16497 -0.39809,-0.95145 0.15845,-0.95145 0.30335,0 0.43422,0.14232 0.43422,0.47223 0,0.3454 -0.28439,0.57535 -0.59267,0.47922 z"
           id="path1145"
           inkscape:connector-curvature="0" />
        <path
           style="fill:#cde9f2;fill-opacity:1;stroke-width:1"
           d="m 232.68959,201.83107 c -0.15818,-0.12442 -0.22271,-0.25375 -0.22179,-0.4445 0.002,-0.31994 0.0598,-0.4206 0.32388,-0.55977 0.25966,-0.13682 0.63193,0.009 0.76451,0.30046 0.13193,0.28956 0.12522,0.32315 -0.12355,0.6188 -0.25699,0.30541 -0.43672,0.32598 -0.74305,0.085 z"
           id="path1143"
           inkscape:connector-curvature="0" />
        <path
           style="fill:#cde9f2;fill-opacity:1;stroke-width:1"
           d="m 273.22965,201.29073 c -0.1143,-0.1143 -0.20782,-0.28748 -0.20782,-0.38484 0,-0.20154 0.35447,-0.59267 0.53711,-0.59267 0.24713,0 0.50712,0.30385 0.50712,0.59267 0,0.18962 -0.0624,0.33093 -0.19283,0.43652 -0.25686,0.208 -0.39499,0.19691 -0.64358,-0.0517 z"
           id="path1141"
           inkscape:connector-curvature="0" />
        <path
           style="fill:#cde9f2;fill-opacity:1;stroke-width:1"
           d="m 232.26796,200.24305 c -0.43115,-0.47641 0.1819,-1.17996 0.69555,-0.79823 0.27156,0.20182 0.33243,0.56888 0.13122,0.79122 -0.1883,0.20806 -0.64134,0.21191 -0.82677,0.007 z"
           id="path1139"
           inkscape:connector-curvature="0" />
        <path
           style="fill:#cde9f2;fill-opacity:1;stroke-width:1"
           d="m 273.59817,199.74172 c -0.28888,-0.33638 -0.2534,-0.5935 0.10862,-0.78724 0.42432,-0.2271 0.79755,0.46284 0.43021,0.79528 -0.19939,0.18045 -0.37926,0.17776 -0.53883,-0.008 z"
           id="path1137"
           inkscape:connector-curvature="0" />
        <path
           style="fill:#cde9f2;fill-opacity:1;stroke-width:1"
           d="m 232.07098,198.84054 c -0.29619,-0.25477 -0.33764,-0.83986 -0.0732,-1.03322 0.39128,-0.28611 0.97672,0.0487 0.97672,0.55857 0,0.27992 -0.31786,0.67733 -0.54176,0.67733 -0.0694,0 -0.23216,-0.0912 -0.36176,-0.20268 z"
           id="path1135"
           inkscape:connector-curvature="0" />
        <path
           style="fill:#cde9f2;fill-opacity:1;stroke-width:1"
           d="m 273.8685,198.39179 c -0.51228,-0.18308 -0.39724,-1.12657 0.13737,-1.12657 0.69365,0 0.9307,0.81079 0.31859,1.08968 -0.22629,0.10311 -0.2625,0.10604 -0.45596,0.0369 z"
           id="path1133"
           inkscape:connector-curvature="0" />
        <path
           style="fill:#cde9f2;fill-opacity:1;stroke-width:1"
           d="m 231.87998,197.1268 c -0.20837,-0.2649 -0.21639,-0.35816 -0.0511,-0.59419 0.18012,-0.25716 0.43178,-0.29412 0.67892,-0.0997 0.25515,0.2007 0.28288,0.57321 0.0578,0.77687 -0.2249,0.20353 -0.4851,0.17205 -0.68569,-0.083 z"
           id="path1131"
           inkscape:connector-curvature="0" />
        <path
           style="fill:#cde9f2;fill-opacity:1;stroke-width:1"
           d="m 273.7947,196.81265 c -0.179,-0.21569 -0.20901,-0.63385 -0.0616,-0.85878 0.18078,-0.2759 0.75613,-0.30735 0.89445,-0.0489 0.12745,0.23813 0.10737,0.61706 -0.0442,0.83339 -0.15121,0.21588 -0.63345,0.2613 -0.78867,0.0743 z"
           id="path1129"
           inkscape:connector-curvature="0" />
        <path
           style="fill:#cde9f2;fill-opacity:1;stroke-width:1"
           d="m 231.8061,195.63962 c -0.14491,-0.14492 -0.12562,-0.62428 0.0315,-0.78135 0.1833,-0.1833 0.51068,-0.16665 0.71362,0.0363 0.34471,0.34471 0.11236,0.84667 -0.3919,0.84667 -0.13836,0 -0.29729,-0.0457 -0.35317,-0.1016 z"
           id="path1127"
           inkscape:connector-curvature="0" />
        <path
           style="fill:#cde9f2;fill-opacity:1;stroke-width:1"
           d="m 273.78998,195.0948 c -0.0965,-0.1227 -0.17548,-0.26996 -0.17548,-0.32725 0,-0.0573 0.079,-0.20455 0.17548,-0.32725 0.33668,-0.42802 0.92519,-0.206 0.92519,0.34904 0,0.53288 -0.59244,0.72848 -0.92519,0.30546 z"
           id="path1125"
           inkscape:connector-curvature="0" />
        <path
           style="fill:#cde9f2;fill-opacity:1;stroke-width:1"
           d="m 231.93734,194.12577 c -0.21525,-0.12537 -0.20418,-0.71928 0.0156,-0.83691 0.24417,-0.13067 0.47029,-0.10646 0.62744,0.0672 0.39849,0.44032 -0.12754,1.06997 -0.64304,0.76972 z"
           id="path1123"
           inkscape:connector-curvature="0" />
        <path
           style="fill:#cde9f2;fill-opacity:1;stroke-width:1"
           d="m 273.65299,193.58607 c -0.1143,-0.1143 -0.20782,-0.26491 -0.20782,-0.33469 0,-0.25494 0.19723,-0.54917 0.43381,-0.64717 0.20129,-0.0834 0.27925,-0.0764 0.45854,0.0411 0.46953,0.30764 0.46528,0.88574 -0.008,1.06562 -0.32882,0.12502 -0.44902,0.10284 -0.67671,-0.12485 z"
           id="path1121"
           inkscape:connector-curvature="0" />
        <path
           style="fill:#cde9f2;fill-opacity:1;stroke-width:1"
           d="m 232.00897,192.5098 c -0.0743,-0.10611 -0.13513,-0.25217 -0.13513,-0.32458 0,-0.0724 0.0608,-0.21848 0.13513,-0.32459 0.19184,-0.27389 0.61736,-0.22469 0.79356,0.0918 0.11641,0.20907 0.11641,0.25659 0,0.46566 -0.1762,0.31645 -0.60172,0.36565 -0.79356,0.0917 z"
           id="path1119"
           inkscape:connector-curvature="0" />
        <path
           style="fill:#cde9f2;fill-opacity:1;stroke-width:1"
           d="m 273.78383,192.28739 c -0.47248,-0.14733 -0.59087,-0.80476 -0.20024,-1.11203 0.28903,-0.22735 0.41621,-0.22121 0.66976,0.0323 0.43759,0.43759 0.0834,1.2521 -0.46952,1.07969 z"
           id="path1117"
           inkscape:connector-curvature="0" />
        <path
           style="fill:#cde9f2;fill-opacity:1;stroke-width:1"
           d="m 232.21865,190.94613 c -0.0965,-0.12269 -0.17548,-0.26995 -0.17548,-0.32724 0,-0.0573 0.079,-0.20456 0.17548,-0.32725 0.12727,-0.1618 0.25351,-0.22309 0.45952,-0.22309 0.20601,0 0.33225,0.0613 0.45952,0.22309 0.22735,0.28903 0.22121,0.41621 -0.0323,0.66976 -0.28281,0.28281 -0.65731,0.27636 -0.8867,-0.0153 z"
           id="path1115"
           inkscape:connector-curvature="0" />
        <path
           style="fill:#cde9f2;fill-opacity:1;stroke-width:1"
           d="m 273.3029,190.55967 c -0.39267,-0.50605 -0.0296,-1.14029 0.49531,-0.86526 0.2942,0.15415 0.36245,0.44611 0.16663,0.71281 -0.17436,0.23746 -0.53205,0.31984 -0.66194,0.15245 z"
           id="path1113"
           inkscape:connector-curvature="0" />
        <path
           style="fill:#cde9f2;fill-opacity:1;stroke-width:1"
           d="m 232.60663,189.57505 c -0.14263,-0.15759 -0.18821,-0.65827 -0.0753,-0.82732 0.0342,-0.0512 0.15138,-0.14016 0.26038,-0.19759 0.23741,-0.1251 0.64727,0.009 0.77873,0.25446 0.1306,0.24404 0.0942,0.63349 -0.0734,0.78516 -0.20924,0.18937 -0.71322,0.18104 -0.89037,-0.0147 z"
           id="path1111"
           inkscape:connector-curvature="0" />
        <path
           style="fill:#cde9f2;fill-opacity:1;stroke-width:1"
           d="m 272.89099,188.9294 c -0.24706,-0.24706 -0.26522,-0.47599 -0.053,-0.66806 0.50883,-0.46049 1.07827,0.20313 0.62444,0.72771 -0.17468,0.20192 -0.32564,0.18616 -0.57145,-0.0597 z"
           id="path1109"
           inkscape:connector-curvature="0" />
        <path
           style="fill:#cde9f2;fill-opacity:1;stroke-width:1"
           d="m 233.33987,188.20529 c -0.40203,-0.16198 -0.47867,-0.65999 -0.14228,-0.92459 0.28051,-0.22066 0.4919,-0.22249 0.70825,-0.006 0.24363,0.24363 0.21918,0.62583 -0.0538,0.84052 -0.24757,0.19474 -0.25121,0.19538 -0.51221,0.0902 z"
           id="path1107"
           inkscape:connector-curvature="0" />
        <path
           style="fill:#cde9f2;fill-opacity:1;stroke-width:1"
           d="m 272.4026,187.60341 c -0.35707,-0.20768 -0.3062,-0.79261 0.0773,-0.88887 0.295,-0.074 0.51367,0.0334 0.62755,0.30833 0.19521,0.47127 -0.25509,0.84215 -0.70486,0.58054 z"
           id="path1105"
           inkscape:connector-curvature="0" />
        <path
           style="fill:#cde9f2;fill-opacity:1;stroke-width:1"
           d="m 233.69897,186.57838 c -0.19365,-0.27647 -0.16121,-0.53841 0.0913,-0.73702 0.28501,-0.22418 0.33187,-0.22089 0.59456,0.0418 0.17504,0.17505 0.20696,0.26886 0.16421,0.48263 -0.0292,0.14594 -0.10012,0.29523 -0.15763,0.33176 -0.20747,0.13178 -0.55903,0.0713 -0.69242,-0.11917 z"
           id="path1103"
           inkscape:connector-curvature="0" />
        <path
           style="fill:#cde9f2;fill-opacity:1;stroke-width:1"
           d="m 271.77067,186.12675 c -0.36573,-0.25617 -0.15025,-0.8842 0.30338,-0.8842 0.23561,0 0.47376,0.3611 0.40881,0.61987 -0.0273,0.10877 -0.14759,0.2424 -0.26731,0.29695 -0.26609,0.12124 -0.22044,0.12459 -0.44488,-0.0326 z"
           id="path1101"
           inkscape:connector-curvature="0" />
        <path
           style="fill:#cde9f2;fill-opacity:1;stroke-width:1"
           d="m 234.38463,185.25705 c -0.14526,-0.1605 -0.18364,-0.49578 -0.0753,-0.65799 0.0342,-0.0512 0.15048,-0.13967 0.25838,-0.19652 0.29594,-0.15592 0.60816,0.074 0.60816,0.44784 0,0.48801 -0.48978,0.73975 -0.79121,0.40667 z"
           id="path1099"
           inkscape:connector-curvature="0" />
        <path
           style="fill:#cde9f2;fill-opacity:1;stroke-width:1"
           d="m 270.95355,184.8555 c -0.0802,-0.0802 -0.13305,-0.27947 -0.13305,-0.50195 0,-0.43106 0.16139,-0.635 0.5025,-0.635 0.29417,0 0.68283,0.37021 0.68283,0.6504 0,0.4709 -0.73027,0.80857 -1.05228,0.48655 z"
           id="path1097"
           inkscape:connector-curvature="0" />
        <path
           style="fill:#cde9f2;fill-opacity:1;stroke-width:1"
           d="m 235.14412,183.84408 c -0.15773,-0.15774 -0.17684,-0.40205 -0.05,-0.63909 0.13778,-0.25745 0.63196,-0.22251 0.81553,0.0576 0.12993,0.1983 0.13207,0.24472 0.0205,0.4445 -0.15158,0.27136 -0.57742,0.34555 -0.78604,0.13694 z"
           id="path1095"
           inkscape:connector-curvature="0" />
        <path
           style="fill:#cde9f2;fill-opacity:1;stroke-width:1"
           d="m 270.22783,183.46455 c -0.24972,-0.24972 -0.22784,-0.71975 0.0417,-0.89638 0.58213,-0.38143 1.16988,0.43469 0.67178,0.93279 -0.18318,0.18319 -0.51061,0.16648 -0.7135,-0.0364 z"
           id="path1093"
           inkscape:connector-curvature="0" />
        <path
           style="fill:#cde9f2;fill-opacity:1;stroke-width:1"
           d="m 235.99329,182.63239 c -0.30241,-0.33417 -0.0706,-0.86117 0.37878,-0.86117 0.28316,0 0.41243,0.14937 0.41243,0.47655 0,0.4865 -0.48544,0.72248 -0.79121,0.38462 z"
           id="path1091"
           inkscape:connector-curvature="0" />
        <path
           style="fill:#cde9f2;fill-opacity:1;stroke-width:1"
           d="m 269.25032,182.15607 c -0.23418,-0.23418 -0.24979,-0.31717 -0.10932,-0.58092 0.22251,-0.41779 0.51767,-0.49335 0.86375,-0.22112 0.43938,0.34561 0.2092,1.00986 -0.34994,1.00986 -0.10817,0 -0.29019,-0.0935 -0.40449,-0.20782 z"
           id="path1089"
           inkscape:connector-curvature="0" />
        <path
           style="fill:#cde9f2;fill-opacity:1;stroke-width:1"
           d="m 236.88393,181.40593 c -0.22964,-0.24444 -0.23507,-0.51507 -0.0148,-0.73538 0.34073,-0.34073 0.84667,-0.13475 0.84667,0.34472 0,0.27852 -0.25905,0.58662 -0.49325,0.58662 -0.085,0 -0.23741,-0.0882 -0.33866,-0.19596 z"
           id="path1087"
           inkscape:connector-curvature="0" />
        <path
           style="fill:#cde9f2;fill-opacity:1;stroke-width:1"
           d="m 268.36976,180.97242 c -0.0555,-0.0668 -0.0887,-0.24692 -0.0739,-0.40024 0.0602,-0.62269 0.91027,-0.55539 0.91465,0.0724 0.002,0.35358 -0.61847,0.59569 -0.84078,0.32783 z"
           id="path1085"
           inkscape:connector-curvature="0" />
        <path
           style="fill:#cde9f2;fill-opacity:1;stroke-width:1"
           d="m 237.83088,180.28529 c -0.16868,-0.16868 -0.2034,-0.26583 -0.15868,-0.44402 0.087,-0.34678 0.20403,-0.44072 0.54888,-0.44072 0.57831,0 0.81159,0.57967 0.37234,0.92519 -0.29525,0.23225 -0.50075,0.22135 -0.76254,-0.0405 z"
           id="path1083"
           inkscape:connector-curvature="0" />
        <path
           style="fill:#cde9f2;fill-opacity:1;stroke-width:1"
           d="m 267.2645,179.90855 c -0.22883,-0.22883 -0.21323,-0.55646 0.0385,-0.80818 0.23087,-0.23087 0.36235,-0.25301 0.67002,-0.11283 0.53879,0.24549 0.31783,1.09035 -0.28518,1.09035 -0.14111,0 -0.32925,-0.0753 -0.42333,-0.16934 z"
           id="path1081"
           inkscape:connector-curvature="0" />
        <path
           style="fill:#cde9f2;fill-opacity:1;stroke-width:1"
           d="m 239.00059,179.28926 c -0.1813,-0.19298 -0.24316,-0.60069 -0.11929,-0.7862 0.0342,-0.0512 0.15268,-0.14085 0.26328,-0.19914 0.17162,-0.0905 0.23362,-0.0818 0.42333,0.0592 0.31317,0.23273 0.34033,0.63073 0.062,0.90902 -0.26401,0.26402 -0.39408,0.26755 -0.62935,0.0171 z"
           id="path1079"
           inkscape:connector-curvature="0" />
        <path
           style="fill:#cde9f2;fill-opacity:1;stroke-width:1"
           d="m 266.21929,178.82239 c -0.19785,-0.21863 -0.17386,-0.54596 0.0558,-0.76175 0.24283,-0.22812 0.31653,-0.22919 0.59695,-0.009 0.26809,0.21088 0.29005,0.51956 0.0537,0.75586 -0.21131,0.21131 -0.52264,0.2177 -0.70654,0.0145 z"
           id="path1077"
           inkscape:connector-curvature="0" />
        <path
           style="fill:#cde9f2;fill-opacity:1;stroke-width:1"
           d="m 240.05916,178.27911 c -0.11433,-0.0837 -0.14725,-0.19972 -0.127,-0.44767 0.0223,-0.27339 0.0726,-0.35626 0.27428,-0.4525 0.31547,-0.15051 0.63343,-0.0473 0.80704,0.26202 0.11792,0.21009 0.11417,0.24627 -0.0481,0.46455 -0.20138,0.27084 -0.65471,0.35769 -0.90619,0.1736 z"
           id="path1075"
           inkscape:connector-curvature="0" />
        <path
           style="fill:#cde9f2;fill-opacity:1;stroke-width:1"
           d="m 265.08687,178.04418 c -0.20977,-0.0844 -0.32176,-0.4039 -0.24658,-0.70345 0.0485,-0.19342 0.3611,-0.39551 0.61171,-0.39551 0.18705,0 0.5425,0.38832 0.5425,0.59267 0,0.21942 -0.36256,0.59454 -0.56765,0.5873 -0.0836,-0.003 -0.2366,-0.0394 -0.33998,-0.081 z"
           id="path1073"
           inkscape:connector-curvature="0" />
        <path
           style="fill:#cde9f2;fill-opacity:1;stroke-width:1"
           d="m 241.40562,177.35876 c -0.29231,-0.22993 -0.27414,-0.6203 0.0397,-0.85353 0.26268,-0.19518 0.46547,-0.13375 0.63394,0.19204 0.167,0.32294 0.15799,0.39086 -0.0839,0.6328 -0.2533,0.25329 -0.30123,0.25563 -0.58973,0.0287 z"
           id="path1071"
           inkscape:connector-curvature="0" />
        <path
           style="fill:#cde9f2;fill-opacity:1;stroke-width:1"
           d="m 263.75688,177.06617 c -0.17001,-0.17001 -0.1706,-0.53766 -0.001,-0.77944 0.15652,-0.22347 0.55367,-0.25261 0.75115,-0.0551 0.15682,0.15682 0.17728,0.72019 0.0315,0.86602 -0.14492,0.14492 -0.62428,0.12562 -0.78135,-0.0314 z"
           id="path1069"
           inkscape:connector-curvature="0" />
        <path
           style="fill:#cde9f2;fill-opacity:1;stroke-width:1"
           d="m 242.58036,176.60234 c -0.341,-0.3768 -0.12773,-1.01179 0.33982,-1.01179 0.52155,0 0.74771,0.63422 0.35703,1.00124 -0.24579,0.23091 -0.49403,0.23467 -0.69685,0.0106 z"
           id="path1067"
           inkscape:connector-curvature="0" />
        <path
           style="fill:#cde9f2;fill-opacity:1;stroke-width:1"
           d="m 262.45326,176.24126 c -0.10125,-0.10777 -0.18409,-0.27332 -0.18409,-0.36787 0,-0.38497 0.65179,-0.63464 0.96915,-0.37125 0.20186,0.16753 0.16813,0.64583 -0.0567,0.80328 -0.26523,0.18578 -0.5142,0.16385 -0.7284,-0.0642 z"
           id="path1065"
           inkscape:connector-curvature="0" />
        <path
           style="fill:#cde9f2;fill-opacity:1;stroke-width:1"
           d="m 243.85897,175.82571 c -0.17472,-0.24944 -0.1672,-0.60059 0.0164,-0.76473 0.57627,-0.51527 1.2821,0.27254 0.73465,0.81999 -0.19737,0.19737 -0.59454,0.16815 -0.75102,-0.0553 z"
           id="path1063"
           inkscape:connector-curvature="0" />
        <path
           style="fill:#cde9f2;fill-opacity:1;stroke-width:1"
           d="m 261.27174,175.6279 c -0.33933,-0.23768 -0.17655,-0.88401 0.22264,-0.88401 0.23516,0 0.52079,0.24915 0.52079,0.45428 0,0.40914 -0.42341,0.65388 -0.74343,0.42973 z"
           id="path1061"
           inkscape:connector-curvature="0" />
        <path
           style="fill:#cde9f2;fill-opacity:1;stroke-width:1"
           d="m 245.22196,175.26639 c -0.18599,-0.20551 -0.17822,-0.63112 0.0147,-0.80571 0.19588,-0.17727 0.63874,-0.18113 0.81278,-0.007 0.18202,0.18201 0.16959,0.65431 -0.0218,0.82749 -0.20551,0.18599 -0.63112,0.17822 -0.80571,-0.0147 z"
           id="path1059"
           inkscape:connector-curvature="0" />
        <path
           style="fill:#cde9f2;fill-opacity:1;stroke-width:1"
           d="m 259.7771,175.05478 c -0.3388,-0.24774 -0.0595,-0.90356 0.38478,-0.90356 0.22168,0 0.49862,0.29838 0.49862,0.53721 0,0.39998 -0.53435,0.62158 -0.8834,0.36635 z"
           id="path1057"
           inkscape:connector-curvature="0" />
        <path
           style="fill:#cde9f2;fill-opacity:1;stroke-width:1"
           d="m 246.64432,174.79021 c -0.25397,-0.25398 -0.26512,-0.54317 -0.0323,-0.8391 0.27246,-0.34638 0.67433,-0.28767 0.89035,0.13007 0.15459,0.29895 0.0983,0.51595 -0.19325,0.7453 -0.28391,0.22333 -0.41216,0.21633 -0.66476,-0.0363 z"
           id="path1055"
           inkscape:connector-curvature="0" />
        <path
           style="fill:#cde9f2;fill-opacity:1;stroke-width:1"
           d="m 258.34529,174.58919 c -0.1905,-0.2105 -0.17613,-0.53855 0.0354,-0.80741 0.21623,-0.2749 0.41591,-0.28315 0.65643,-0.0271 0.20412,0.21728 0.25079,0.71948 0.0825,0.88778 -0.15422,0.15422 -0.61522,0.12252 -0.77428,-0.0532 z"
           id="path1053"
           inkscape:connector-curvature="0" />
        <path
           style="fill:#cde9f2;fill-opacity:1;stroke-width:1"
           d="m 248.11064,174.42653 c -0.3226,-0.36738 -0.23097,-0.86341 0.19183,-1.03854 0.43892,-0.1818 0.81916,0.20289 0.72047,0.72892 -0.0826,0.44016 -0.63349,0.62713 -0.9123,0.30962 z"
           id="path1051"
           inkscape:connector-curvature="0" />
        <path
           style="fill:#cde9f2;fill-opacity:1;stroke-width:1"
           d="m 257.1045,174.34193 c -0.33157,-0.10639 -0.45605,-0.65379 -0.20562,-0.90422 0.17292,-0.17292 0.57941,-0.1705 0.75439,0.004 0.0883,0.0883 0.12835,0.24538 0.11188,0.43883 -0.0209,0.24511 -0.073,0.31998 -0.27965,0.40148 -0.1397,0.0551 -0.31115,0.0818 -0.381,0.0594 z"
           id="path1049"
           inkscape:connector-curvature="0" />
        <path
           style="fill:#cde9f2;fill-opacity:1;stroke-width:1"
           d="m 249.54108,174.12988 c -0.0798,-0.0584 -0.16758,-0.24457 -0.19504,-0.4138 -0.0615,-0.37917 0.17749,-0.66542 0.55565,-0.66542 0.26769,0 0.59881,0.32773 0.59881,0.59267 0,0.0806 -0.079,0.24688 -0.17548,0.36958 -0.19247,0.24469 -0.53863,0.29634 -0.78394,0.11697 z"
           id="path1047"
           inkscape:connector-curvature="0" />
        <path
           style="fill:#cde9f2;fill-opacity:1;stroke-width:1"
           d="m 252.64233,173.97473 c -0.2304,-0.0852 -0.46599,-0.52211 -0.39269,-0.7282 0.10494,-0.29508 0.30761,-0.44987 0.58902,-0.44987 0.68859,0 0.86962,0.93986 0.22436,1.1648 -0.12977,0.0452 -0.31821,0.0512 -0.42069,0.0133 z"
           id="path1045"
           inkscape:connector-curvature="0" />
        <path
           style="fill:#cde9f2;fill-opacity:1;stroke-width:1"
           d="m 255.55898,173.96083 c -0.0762,-0.0582 -0.16255,-0.20559 -0.19189,-0.32751 -0.0423,-0.17595 -0.006,-0.25889 0.17612,-0.40216 0.29128,-0.22912 0.3877,-0.2267 0.6152,0.0155 0.22899,0.24375 0.23327,0.4322 0.0148,0.65071 -0.19379,0.19378 -0.41384,0.21654 -0.61419,0.0635 z"
           id="path1043"
           inkscape:connector-curvature="0" />
        <path
           style="fill:#cde9f2;fill-opacity:1;stroke-width:1"
           d="m 251.11201,173.8502 c -0.36036,-0.25241 -0.15157,-0.8842 0.2922,-0.8842 0.39606,0 0.59939,0.60142 0.29613,0.87587 -0.19325,0.17489 -0.34742,0.17707 -0.58833,0.008 z"
           id="path1041"
           inkscape:connector-curvature="0" />
        <path
           style="fill:#cde9f2;fill-opacity:1;stroke-width:1"
           d="m 253.99067,173.8502 c -0.27625,-0.1935 -0.25723,-0.64826 0.0368,-0.87954 0.2556,-0.20105 0.4979,-0.16883 0.72753,0.0967 0.19655,0.2273 0.18733,0.50196 -0.0245,0.7293 -0.20287,0.21775 -0.47706,0.23757 -0.73987,0.0535 z"
           id="path849"
           inkscape:connector-curvature="0" />
      </g>
    </g>
  </g>
</svg>
